<svg xmlns="http://www.w3.org/2000/svg" viewBox="0 0 155.1 124.78"><defs><style>.cls-1{fill:#25DEB0;}.cls-2{fill:#fff;}</style></defs><g id="Layer_2" data-name="Layer 2"><g id="Layer_1-2" data-name="Layer 1"><path class="cls-1" d="M144.6,45.32a57.05,57.05,0,0,1-8.73,4.53c-.6,1.26-1.47,3-2.56,5.11-5.08,9.65-16.74,31.81-33.68,46.24,8,10.13,11.72,19.41,9.61,22.33-1.28,1.78-4.75,1.24-7.07.89-8.27-1.26-13.34-6.69-17.91-13.39-5.45-8-10.2-17.76-18.83-24.45C51.65,75.9,33,77,19.16,79.37,8.31,81.24.38,83.88,0,82.25S7.85,74.7,20.18,71.19c2.91-11,11.62-21.34,21.63-23,18-3,27,26.9,50.86,26.11,13.2-.44,28.84-10.15,36.07-23.26a37.55,37.55,0,0,0,2.2-4.74,71.46,71.46,0,0,1-4.45-7.63,71.14,71.14,0,0,1-4.71-12c1.74.7,8.56,3.69,11.78,11.14a20.08,20.08,0,0,1,1.62,8.43,19.62,19.62,0,0,1,19.92-9.5A57.42,57.42,0,0,1,144.6,45.32Z"/><path class="cls-2" d="M84.26,111a43,43,0,0,1-13.17,3.43c-21.49,2-50.47-13-51.88-34,0-.35,0-.7-.05-1.06C33,77,51.65,75.9,65.43,86.58,74.06,93.27,78.81,103.05,84.26,111Z"/><circle class="cls-2" cx="57.17" cy="64.18" r="1.93"/><circle class="cls-2" cx="19.56" cy="46.93" r="3.21"/><circle class="cls-2" cx="15.17" cy="36.96" r="4.5"/><circle class="cls-2" cx="15.17" cy="23.89" r="6.54"/><circle class="cls-2" cx="23.74" cy="8.25" r="8.25"/></g></g></svg>